<?xml version="1.0" encoding="utf-8"?>
<!-- Generator: Adobe Illustrator 26.0.1, SVG Export Plug-In . SVG Version: 6.00 Build 0)  -->
<svg version="1.1" id="Layer_1" xmlns="http://www.w3.org/2000/svg" xmlns:xlink="http://www.w3.org/1999/xlink" x="0px" y="0px"
	 viewBox="0 0 512 512" style="enable-background:new 0 0 512 512;" xml:space="preserve">
<style type="text/css">
	.st0{fill-rule:evenodd;clip-rule:evenodd;fill:#FFFFFF;}
</style>
<path class="st0" d="M248.5,197l-7.3,85.2L248.5,197L248.5,197z M396.4,219c20.9,0,37.8,16.9,37.8,37.8c0,20.9-16.9,37.8-37.8,37.8
	c-20.9,0-37.8-16.9-37.8-37.8C358.6,235.9,375.6,219,396.4,219L396.4,219z M125.5,326.6V231h-29v95.5c0,0,0,0.1,0,0.1h0l0,1.5h0
	l0.1,1.4h0l0.1,0.6h0l0.1,0.6h0l0,0.5h0l0.1,0.6h0l0.1,0.5h0l0.1,0.4h0l0.1,0.3h0l0.1,0.3h0l0.1,0.3h0l0.1,0.3h0l0.1,0.3h0l0.1,0.2
	h0l0.1,0.3h0l0.2,0.8h0l0.1,0.2h0l0.1,0.2h0l0,0.2h0l0.1,0.2h0l0.1,0.2h0l0.1,0.2h0l0.1,0.2h0l0.1,0.2h0l0.1,0.4h0l0.2,0.4h0
	l0.1,0.2h0l0.1,0.2h0l0.2,0.6h0l0.1,0.2h0l0.1,0.2h0l0.1,0.2h0l0.1,0.2h0l0.1,0.2h0l0.1,0.2h0l0.1,0.2h0l0.1,0.2h0l0.4,0.7h0
	l0.1,0.2h0l0.1,0.2h0l0.1,0.2h0l0.1,0.2h0l0.1,0.2h0l0.1,0.2h0l0.1,0.2h0l0.1,0.2h0l0.5,0.7h0l0.2,0.3h0l0.2,0.2l0.1,0.1h0l0.2,0.2
	h0l0.1,0.1h0l0.2,0.3h0l0.6,0.8l0.1,0.1h0l0.1,0.1h0v0c0.1,0.1,0.3,0.3,0.4,0.4h0l0.1,0.1h0l0.1,0.1h0l0,0.1h0l0,0.1h0l0,0.1h0v0
	c0.5,0.5,1,1,1.5,1.5h0v0l0.1,0v0l0.1,0v0l0.1,0.1v0l0.1,0.1v0l0.1,0.1v0l0.5,0.4v0l0.1,0.1v0l0.5,0.4v0l0.3,0.2v0l0.1,0.1v0
	l0.2,0.1v0l0.1,0v0l0.2,0.1v0l0.1,0v0l0.2,0.1v0l0.1,0v0l0.2,0.1v0l0.3,0.2v0l0.5,0.3v0l0.2,0.2v0l0.2,0.1v0l0.2,0.1v0l0.2,0.1v0
	l0.1,0v0l0.2,0.1v0l0.2,0.1v0l0.2,0.1v0l0.4,0.2v0c0.5,0.3,1,0.5,1.5,0.8h0.1v0l0.2,0v0l0.2,0v0l0.2,0.1v0l0.2,0.1v0l0.2,0.1v0
	l0.9,0.4v0l0.4,0.1v0l0.2,0.1v0l0.2,0.1v0l0.2,0v0l0.2,0.1v0l0.2,0.1v0l0.2,0.1v0l0.7,0.2v0l0.3,0.1v0l0.2,0.1v0l0.3,0.1v0l0.3,0.1
	v0l0.3,0.1v0l0.3,0.1v0l0.3,0.1v0l0.8,0.1v0l0.5,0.1v0l0.6,0.1v0l0.5,0v0l0.6,0.1v0l0.7,0.1v0l1.5,0.1v0c0.4,0,0.8,0,1.2,0V326.6
	L125.5,326.6z M462.8,192.5c-36.4-36.4-95.5-36.4-131.9,0c-1.5,1.5-2.9,3-4.2,4.6c-3.2,3.5-6,7.3-8.4,11.1
	c-9.8,15.2-14.7,32.7-14.7,50.1c0,12.5-1.7,24.6-5.1,36.3c-6,21.3-17.3,40.5-33.3,56.6c-24.8,24.7-57.7,38.3-92.9,38.3
	c-35,0-67.9-13.6-92.7-38.3c-24.7-24.8-38.5-57.8-38.5-92.9c0-9.8,1.1-19.3,3.1-28.6H20.8c-1.8,9.4-2.6,18.9-2.6,28.6
	c0,41.2,16.1,80,45.3,109.1c30,30.1,69.5,45.2,109,45.2c39.5,0,79-15,109.1-45.2c13.5-13.5,24.1-29,31.8-46c1.8-4.2,3.6-8.5,5-12.9
	c5.5-15.9,8.4-32.9,8.4-50.2c0-11.3,2.8-22.8,8.3-33c3.2-5.9,7.3-11.5,12.2-16.5c13.2-13.3,30.8-20.6,49.6-20.6
	c18.7,0,36.4,7.3,49.7,20.6c13.6,13.7,20.4,31.6,20.4,49.5c0,18-6.8,36-20.4,49.7c-13.3,13.2-31,20.6-49.7,20.6
	c-18.7,0-36.4-7.4-49.6-20.6c-5-5-9.1-10.6-12.2-16.6c-2,9.7-4.7,19.2-8.4,28.3c1.4,1.6,2.8,3.1,4.3,4.6c17.7,17.7,41,27.4,66,27.4
	c24.9,0,48.3-9.7,65.9-27.4C499.2,287.9,499.2,228.7,462.8,192.5L462.8,192.5z M70.3,210.8h140.4c14.1,0,25.8,11.7,25.8,25.8
	c0,14.1-11.7,25.8-25.8,25.8h-56.1v29h56.9l0,0c0.2,0,0.5,0,0.7,0v0l1.9-0.1v0l1-0.1v0l0.9-0.1v0l2-0.2v0l0.6-0.1v0l0.6-0.1v0
	l0.9-0.2v0l0.9-0.2v0l0.4-0.1v0l0.4-0.1v0l0.4-0.1l0.7-0.2l0.3-0.1v0l0.3-0.1v0l0.3-0.1v0l0.3-0.1v0l1.5-0.4v0l0.6-0.2v0l0.2-0.1v0
	l0.8-0.2v0l0.9-0.3v0l0.2-0.1v0l0.2-0.1v0l0.2-0.1v0l0.6-0.2v0l0.2-0.1l1-0.4l0.4-0.2v0l0.6-0.2v0l0.4-0.2v0l1.4-0.6v0l0.2-0.1v0
	l3-1.5v0l0.9-0.5v0l0.6-0.3v0l0.4-0.2v0l0.4-0.2v0l0.8-0.5v0l1.1-0.7v0l0.2-0.2v0l0.2-0.2l1-0.7v0l0.6-0.4v0l0.3-0.2v0l1.3-0.9v0
	l0.4-0.3v0l0.4-0.3v0l0.9-0.7v0l0.6-0.5v0l0.6-0.5v0l0.9-0.8l0.1-0.1v0l0.1-0.1v0l2.2-2.2v0h0l0.1-0.1h0l0.1-0.1h0l0.1-0.1h0
	l1.4-1.6h0l0.5-0.6h0l1.3-1.7h0l0.3-0.4l0.2-0.3h0l0.5-0.6h0l0.4-0.6h0l0.4-0.6h0l0.2-0.2h0l0.9-1.4h0l0.1-0.2h0l0.4-0.6h0l0.7-1.2
	h0l0.3-0.6h0l0.3-0.6h0l0.5-1h0l0.1-0.2h0l0.1-0.2h0l0.1-0.2h0l1.2-2.4h0l0.1-0.2h0l0.3-0.7h0l0.4-0.9h0l0.2-0.4h0l0.1-0.4h0
	l0.1-0.4h0l0.6-1.7h0l0.1-0.2h0l0.1-0.2h0l0.1-0.2h0l0.1-0.2h0l0.1-0.2h0l0.3-1h0l0.2-0.6h0l0.1-0.6h0l0.3-1.2l0.2-1h0l0.1-0.3h0
	l0.3-1.5l0.1-0.5h0l0.1-0.4h0l0.1-0.5h0l0.2-1.5h0l0.1-0.6h0l0.1-0.6h0l0.1-0.6l0.1-0.9h0l0.1-1.1h0l0.1-1.1c0.1-1.8,0.1-3.5,0-5.3
	h0l-0.1-1.2h0l-0.1-1h0l-0.2-1.6h0l-0.1-0.6h0l-0.2-1.7h0l-0.1-0.5h0l-0.1-0.5h0l-0.1-0.4h0l-0.3-1.6h0l-0.2-0.7h0l-0.1-0.3h0
	l-0.4-1.6h0l-0.1-0.6h0l-0.1-0.3h0l-0.1-0.2h0l-0.2-0.6h0v0c-0.4-1.2-0.7-2.3-1.2-3.5h0l-0.1-0.4h0l-0.1-0.4h0l-0.8-1.9h0l-0.2-0.6
	h0l-0.1-0.2h0l-0.1-0.2h0l-0.4-0.9l-0.1-0.2h0l-0.1-0.2h0l-0.1-0.2h0l-0.1-0.2h0l-0.1-0.2h0l-0.1-0.2h0l-0.1-0.2h0l-0.1-0.2h0
	l-1-1.9h0l-0.2-0.4h0l-0.1-0.2h0l-0.2-0.4h0l-0.9-1.4h0l-0.1-0.2h0l-1.3-1.9h0l-0.4-0.6h0l-0.4-0.6l-0.5-0.6h0l-0.5-0.7h0l-0.3-0.4
	h0l-1.1-1.3h0l-0.5-0.6h0l-0.1-0.1h0l-1.6-1.7h0l-0.1-0.1h0l-0.1-0.1h0l-0.1-0.1h0l-0.1-0.1h0l-0.1-0.1h0l-1-1v0l-0.1-0.1v0
	l-0.1-0.1v0l-0.1-0.1v0l-0.1-0.1v0l-0.1-0.1l-1.7-1.6v0l-0.6-0.5v0l-1.7-1.4v0l-0.4-0.3v0l-1.3-0.9v0l-0.6-0.4v0l-0.2-0.2v0
	l-0.6-0.4v0L241,191v0l-0.2-0.2v0l-0.2-0.2v0l-0.2-0.2l-0.4-0.2v0l-0.2-0.1v0l-1-0.6l-0.6-0.3v0l-0.4-0.2v0l-0.2-0.1v0L236,188v0
	l-0.2-0.1v0l-0.2-0.1v0l-0.2-0.1v0l-1.4-0.7v0l-0.9-0.4v0l-0.2-0.1v0l-0.7-0.3v0l-0.9-0.4v0l-0.4-0.1v0l-0.4-0.1v0l-0.4-0.1v0
	l-1.3-0.5l-0.2-0.1v0l-0.2-0.1v0l-0.2-0.1v0l-0.2-0.1v0l-2-0.6v0l-0.6-0.2v0l-2.1-0.5v0l-0.3-0.1v0l-0.7-0.2v0l-1.6-0.3v0l-0.4-0.1
	v0l-0.5-0.1v0l-2-0.3v0l-0.6-0.1v0l-0.6-0.1v0l-0.8-0.1v0l-1-0.1v0l-3.6-0.1v0c-0.2,0-0.3,0-0.5,0h-82.8H74.3h-8.4
	c4.1-5.7,8.7-11.1,13.8-16.2c24.8-24.7,57.7-38.3,92.7-38.3c35.1,0,68,13.6,92.9,38.3c15.9,16.1,27.3,35.3,33.3,56.6
	c3.5-9.5,8.4-18.6,14.8-26.9c-7.6-17-18.2-32.5-31.8-46c-29.1-29.2-67.9-45.2-109.1-45.2c-41.2,0-79.9,15.9-109,45.2
	c-14.1,14-25.1,30.3-32.7,48h0l0,0c0,0,0,0.1-0.1,0.1h0l-0.1,0.2h0l-0.4,0.9h0l-0.9,2h0L29,201h0l-0.1,0.2h0l-0.1,0.2h0l-0.1,0.2h0
	l-0.1,0.2h0l-0.1,0.2h0l-0.1,0.2h0l-0.1,0.2h0l-0.1,0.2h0l-0.1,0.2h0l-0.1,0.2h0l-0.1,0.2h0l-0.1,0.4h0l-0.2,0.6h0l-0.2,0.4h0
	l-0.5,1.2h0l-0.2,0.6h0l-0.1,0.4h0l-0.1,0.2h0l-0.1,0.4h0l-0.1,0.2h0l-0.1,0.2h0l-0.1,0.2h0l-0.1,0.2h0l-0.1,0.2h0l-0.1,0.2h0
	l-0.1,0.2h0l-0.1,0.4h0l-0.1,0.2h0l-0.2,0.6h0l-0.2,0.6c0,0.1-0.1,0.2-0.1,0.2L70.3,210.8L70.3,210.8L70.3,210.8z M238.6,189.5
	l9.8,7.5L238.6,189.5L238.6,189.5z M210.7,181.8l28,7.7L210.7,181.8z"/>
</svg>
