<svg id="Layer_1" data-name="Layer 1" xmlns="http://www.w3.org/2000/svg" xmlns:xlink="http://www.w3.org/1999/xlink" viewBox="0 0 522.72 512"><defs><style>.cls-1,.cls-10,.cls-11,.cls-12,.cls-13,.cls-14,.cls-15,.cls-16,.cls-17,.cls-18,.cls-2,.cls-3,.cls-4,.cls-5,.cls-6,.cls-7,.cls-8,.cls-9{fill-rule:evenodd;}.cls-1{fill:url(#linear-gradient);}.cls-2{fill:url(#linear-gradient-2);}.cls-3{fill:url(#linear-gradient-3);}.cls-4{fill:url(#linear-gradient-4);}.cls-5{fill:url(#linear-gradient-5);}.cls-6{fill:url(#linear-gradient-6);}.cls-7{fill:url(#linear-gradient-7);}.cls-8{fill:url(#linear-gradient-8);}.cls-9{fill:url(#linear-gradient-9);}.cls-10{fill:url(#linear-gradient-10);}.cls-11{fill:url(#linear-gradient-11);}.cls-12{fill:url(#linear-gradient-12);}.cls-13{fill:url(#linear-gradient-13);}.cls-14{fill:url(#linear-gradient-14);}.cls-15{fill:url(#linear-gradient-15);}.cls-16{fill:url(#linear-gradient-16);}.cls-17{fill:url(#linear-gradient-17);}.cls-18{fill:url(#linear-gradient-18);}.cls-19{fill:#c19b55;}.cls-20{fill:#6a4525;}.cls-21{fill:url(#linear-gradient-19);}.cls-22{fill:url(#linear-gradient-20);}.cls-23{fill:url(#linear-gradient-21);}.cls-24{fill:url(#linear-gradient-22);}.cls-25{fill:url(#linear-gradient-23);}.cls-26{fill:url(#linear-gradient-24);}.cls-27{fill:url(#linear-gradient-25);}.cls-28{fill:url(#linear-gradient-26);}.cls-29{fill:url(#linear-gradient-27);}.cls-30{fill:url(#linear-gradient-28);}.cls-31{fill:url(#linear-gradient-29);}.cls-32{fill:url(#linear-gradient-30);}.cls-33{fill:url(#linear-gradient-31);}.cls-34{fill:url(#linear-gradient-32);}.cls-35{fill:url(#linear-gradient-33);}</style><linearGradient id="linear-gradient" x1="315.79" y1="788.09" x2="311.72" y2="790.94" gradientTransform="matrix(72, 0, 0, -72, -22328.08, 57101)" gradientUnits="userSpaceOnUse"><stop offset="0" stop-color="#ab8d60"/><stop offset="0.15" stop-color="#ab8d60"/><stop offset="0.36" stop-color="#c6ac7d"/><stop offset="0.61" stop-color="#e1cb9b"/><stop offset="0.72" stop-color="#eed9ab"/><stop offset="0.84" stop-color="#e1cb9b"/><stop offset="1" stop-color="#ab8d60"/></linearGradient><linearGradient id="linear-gradient-2" x1="311.67" y1="788.99" x2="311.82" y2="789.14" xlink:href="#linear-gradient"/><linearGradient id="linear-gradient-3" x1="311.77" y1="788.71" x2="311.91" y2="788.86" xlink:href="#linear-gradient"/><linearGradient id="linear-gradient-4" x1="311.88" y1="788.45" x2="312.04" y2="788.61" xlink:href="#linear-gradient"/><linearGradient id="linear-gradient-5" x1="312.04" y1="788.21" x2="312.2" y2="788.37" xlink:href="#linear-gradient"/><linearGradient id="linear-gradient-6" x1="312.41" y1="787.84" x2="312.56" y2="788" xlink:href="#linear-gradient"/><linearGradient id="linear-gradient-7" x1="312.68" y1="787.65" x2="312.83" y2="787.81" xlink:href="#linear-gradient"/><linearGradient id="linear-gradient-8" x1="313.1" y1="787.48" x2="313.27" y2="787.66" xlink:href="#linear-gradient"/><linearGradient id="linear-gradient-9" x1="313.43" y1="787.41" x2="313.58" y2="787.56" xlink:href="#linear-gradient"/><linearGradient id="linear-gradient-10" x1="313.98" y1="787.42" x2="314.13" y2="787.57" xlink:href="#linear-gradient"/><linearGradient id="linear-gradient-11" x1="314.25" y1="787.47" x2="314.41" y2="787.63" xlink:href="#linear-gradient"/><linearGradient id="linear-gradient-12" x1="314.53" y1="787.59" x2="314.64" y2="787.69" xlink:href="#linear-gradient"/><linearGradient id="linear-gradient-13" x1="314.79" y1="787.73" x2="314.92" y2="787.86" xlink:href="#linear-gradient"/><linearGradient id="linear-gradient-14" x1="315.03" y1="787.91" x2="315.14" y2="788.02" xlink:href="#linear-gradient"/><linearGradient id="linear-gradient-15" x1="315.24" y1="788.12" x2="315.39" y2="788.27" xlink:href="#linear-gradient"/><linearGradient id="linear-gradient-16" x1="315.44" y1="788.38" x2="315.6" y2="788.53" xlink:href="#linear-gradient"/><linearGradient id="linear-gradient-17" x1="315.55" y1="788.64" x2="315.68" y2="788.77" xlink:href="#linear-gradient"/><linearGradient id="linear-gradient-18" x1="315.65" y1="788.91" x2="315.81" y2="789.07" xlink:href="#linear-gradient"/><linearGradient id="linear-gradient-19" x1="310.86" y1="792.42" x2="316.65" y2="786.63" gradientTransform="matrix(72, 0, 0, -72, -22328.08, 57101)" gradientUnits="userSpaceOnUse"><stop offset="0" stop-color="#a57534"/><stop offset="0.21" stop-color="#dfc379"/><stop offset="0.45" stop-color="#ac7e3b"/><stop offset="0.72" stop-color="#ffdb7e"/><stop offset="0.99" stop-color="#c1893f"/><stop offset="1" stop-color="#c1893f"/></linearGradient><linearGradient id="linear-gradient-20" x1="312.19" y1="793.3" x2="315.33" y2="785.74" xlink:href="#linear-gradient-19"/><linearGradient id="linear-gradient-21" x1="296.11" y1="786.53" x2="296.67" y2="787.14" gradientTransform="matrix(18.3, 0, 0, -14.63, -5301, 11718.34)" xlink:href="#linear-gradient"/><linearGradient id="linear-gradient-22" x1="299.49" y1="789.72" x2="300.05" y2="790.33" gradientTransform="matrix(22.42, 0, 0, -21.76, -6586, 17372.82)" xlink:href="#linear-gradient"/><linearGradient id="linear-gradient-23" x1="296.63" y1="788.69" x2="297.19" y2="789.3" gradientTransform="matrix(18.86, 0, 0, -18.8, -5443.81, 14990.09)" xlink:href="#linear-gradient"/><linearGradient id="linear-gradient-24" x1="300.99" y1="790.09" x2="301.55" y2="790.7" gradientTransform="matrix(24.88, 0, 0, -23.1, -7309.06, 18384.21)" xlink:href="#linear-gradient"/><linearGradient id="linear-gradient-25" x1="283.11" y1="787.92" x2="283.67" y2="788.52" gradientTransform="matrix(10.79, 0, 0, -17.01, -2844.21, 13524.58)" xlink:href="#linear-gradient"/><linearGradient id="linear-gradient-26" x1="290.79" y1="787.83" x2="291.35" y2="788.44" gradientTransform="matrix(14.28, 0, 0, -16.77, -3918.95, 13328.34)" xlink:href="#linear-gradient"/><linearGradient id="linear-gradient-27" x1="286.56" y1="787.59" x2="287.12" y2="788.2" gradientTransform="matrix(12.13, 0, 0, -16.32, -3212.1, 12964)" xlink:href="#linear-gradient"/><linearGradient id="linear-gradient-28" x1="290.1" y1="788.34" x2="290.67" y2="788.95" gradientTransform="matrix(13.86, 0, 0, -17.94, -3730.08, 14259.06)" xlink:href="#linear-gradient"/><linearGradient id="linear-gradient-29" x1="298.31" y1="789.48" x2="298.87" y2="790.09" gradientTransform="matrix(20.84, 0, 0, -20.92, -5897.59, 16640.81)" xlink:href="#linear-gradient"/><linearGradient id="linear-gradient-30" x1="299.28" y1="789.78" x2="299.85" y2="790.39" gradientTransform="matrix(22.15, 0, 0, -21.9, -6283.17, 17442.77)" xlink:href="#linear-gradient"/><linearGradient id="linear-gradient-31" x1="293.02" y1="786.93" x2="293.58" y2="787.53" gradientTransform="matrix(15.73, 0, 0, -15.19, -4238.63, 12116.81)" xlink:href="#linear-gradient"/><linearGradient id="linear-gradient-32" x1="296.35" y1="787.23" x2="296.91" y2="787.83" gradientTransform="matrix(18.72, 0, 0, -15.49, -5166.43, 12380.07)" xlink:href="#linear-gradient"/><linearGradient id="linear-gradient-33" x1="294.48" y1="787.31" x2="295.04" y2="787.91" gradientTransform="matrix(16.93, 0, 0, -15.71, -4589.61, 12581.17)" xlink:href="#linear-gradient"/></defs><g id="Layer_1-2" data-name="Layer_1"><path class="cls-1" d="M262.12,78.36c-97.81,0-177.38,79.57-177.38,177.37s79.57,177.38,177.38,177.38,177.37-79.57,177.37-177.38S359.92,78.36,262.12,78.36Zm0,356.28c-98.65,0-178.91-80.26-178.91-178.91s80.26-178.9,178.91-178.9S441,157.09,441,255.73s-80.25,178.91-178.9,178.91Z"/><path class="cls-2" d="M126.33,289.91l-.41,0-.11-.06a5.23,5.23,0,0,0-.18-.66,1,1,0,0,0-.31-.48,1.58,1.58,0,0,0-.47-.23,1.84,1.84,0,0,0-.89,0l-.58.1-.62.11-.86.19-1.29.3-4,.92-1.32.3c-.36.09-.66.15-.91.2l-.65.14-.51.12a8.23,8.23,0,0,1-1.78.2,6.82,6.82,0,0,1-1.67-.2,3.92,3.92,0,0,1-1.35-.64,2.55,2.55,0,0,1-.87-1.08,1.31,1.31,0,0,1-.14-.38q0-.22-.09-.39l0-.19.46-.15.14.05c0,.2.08.36.11.51a1.56,1.56,0,0,0,.19.42,2.69,2.69,0,0,0,.51.41,3.65,3.65,0,0,0,2.44.19q1.68-.28,4.62-1l4.44-1,1.3-.3.89-.21.63-.17.52-.16a2.1,2.1,0,0,0,.8-.39,2,2,0,0,0,.33-.42,1,1,0,0,0,.07-.54c0-.21-.07-.43-.12-.67l.06-.13.38-.15,0,0c0,.1.06.27.12.5s.11.47.16.72.12.49.17.72.09.4.11.51l.1.41c0,.1.06.27.12.5s.1.48.16.72.11.49.17.73l.11.5v.05Z"/><path class="cls-3" d="M118.47,310.62a5.52,5.52,0,0,0,1.33,2.05,5.11,5.11,0,0,0,1.92,1.15,6.2,6.2,0,0,0,2.3.3,7.9,7.9,0,0,0,2.46-.54,7.76,7.76,0,0,0,2.2-1.26,6.14,6.14,0,0,0,1.5-1.78,5.22,5.22,0,0,0,.61-2.17,5.92,5.92,0,0,0-.41-2.43,5.53,5.53,0,0,0-1.29-2,4.91,4.91,0,0,0-1.86-1.13,5.76,5.76,0,0,0-2.25-.26,8.64,8.64,0,0,0-2.48.58,8.54,8.54,0,0,0-2.37,1.34,5.78,5.78,0,0,0-1.48,1.79,5,5,0,0,0-.56,2.1,5.57,5.57,0,0,0,.38,2.27Zm13.07-5a7.7,7.7,0,0,1,.54,3.12,6.59,6.59,0,0,1-.72,2.74,7,7,0,0,1-1.74,2.19,8.3,8.3,0,0,1-2.5,1.49,8.76,8.76,0,0,1-2.85.57,7,7,0,0,1-2.78-.46,6.89,6.89,0,0,1-2.42-1.58,7.78,7.78,0,0,1-1.75-2.8,7.5,7.5,0,0,1-.56-3.14,6.62,6.62,0,0,1,.72-2.68,6.77,6.77,0,0,1,1.74-2.12,9.13,9.13,0,0,1,2.51-1.44,9,9,0,0,1,3-.61,7.27,7.27,0,0,1,2.8.47,6.73,6.73,0,0,1,2.36,1.57,7.46,7.46,0,0,1,1.67,2.68Z"/><path class="cls-4" d="M140.92,325.83l-.39.14-.12,0a4.74,4.74,0,0,0-.36-.58,1,1,0,0,0-.42-.37,2.4,2.4,0,0,0-.52-.1,2.17,2.17,0,0,0-.86.25c-.19.09-.37.17-.53.26l-.56.28-.77.41-1.16.64-3.61,2-1.15.64-.73.42-.49.29-.42.28a2,2,0,0,0-.67.6,1.77,1.77,0,0,0-.19.49.93.93,0,0,0,.09.55,4.3,4.3,0,0,0,.3.61l0,.13L128,333l0,0c-.06-.09-.14-.24-.26-.45l-.35-.65c-.13-.22-.25-.43-.36-.64s-.2-.36-.25-.46l-.21-.37-.25-.45-.36-.65c-.12-.22-.24-.44-.36-.64l-.24-.46v-.05l.39-.13.13.05q.18.31.36.57a1,1,0,0,0,.41.36,2.5,2.5,0,0,0,.52.11,1.84,1.84,0,0,0,.87-.24l.33-.17.47-.23.68-.36,1-.54,4-2.21,1.16-.64c.32-.17.58-.33.8-.46l.56-.33.45-.29a2,2,0,0,0,.65-.59,1.58,1.58,0,0,0,.21-.5,1,1,0,0,0-.08-.55,5.59,5.59,0,0,0-.3-.6l0-.14.32-.26,0,0,.25.45c.11.21.23.43.36.65l.35.65.25.45.21.37c.05.1.13.25.25.46s.24.42.36.64l.36.65c.11.21.2.36.25.45v.05Z"/><path class="cls-5" d="M154.66,345.72l-.34.2-.14,0a5.89,5.89,0,0,0-.44-.53.89.89,0,0,0-.45-.29,1.77,1.77,0,0,0-.52,0,2.22,2.22,0,0,0-.82.38l-.48.32-.52.36-.7.52-1.06.79L146,349.8l-1.65,1.25-1.09.84c-.3.24-.56.45-.79.65l-.74.66-.16-.11-.84-1.11.09-.34,4.79-13.59-.36.26c-.13.08-.28.19-.45.32l-.6.45-.84.64-3.3,2.48c-.15.1-.33.24-.57.42l-.72.56-.71.56q-.34.27-.54.45a2.17,2.17,0,0,0-.56.66,1.15,1.15,0,0,0-.13.56,1,1,0,0,0,.14.48,5,5,0,0,0,.41.62v.14l-.28.3,0,0-.29-.39-.41-.54-.42-.55-.28-.39-.26-.34-.31-.41-.45-.59-.44-.59-.31-.42v0l.36-.19.14,0c.17.22.31.39.44.53a1.16,1.16,0,0,0,.46.29,1.4,1.4,0,0,0,.49,0,2.48,2.48,0,0,0,.87-.36l.31-.2.43-.31L138,342l.9-.67,3.64-2.74,1.06-.79.74-.55.51-.4.41-.36a2.41,2.41,0,0,0,.52-.63,1.49,1.49,0,0,0,.17-.58,1,1,0,0,0-.15-.52,5.3,5.3,0,0,0-.39-.57v-.14l.27-.29.1,0,.26.38.34.51.34.52.26.38.47.63c.08.09.18.22.31.4a1.68,1.68,0,0,0,.37.38v.13a5.19,5.19,0,0,0-.47.82c-.18.37-.37.79-.57,1.27l-.64,1.54c-.22.55-.43,1.1-.64,1.65-.77,2-1.37,3.69-1.78,5.06s-.69,2.25-.82,2.64l.24-.16.26-.18.36-.27.57-.43,3.65-2.74,1.06-.8.73-.56.5-.41.41-.35a1.9,1.9,0,0,0,.58-.69,1.71,1.71,0,0,0,.12-.51,1,1,0,0,0-.16-.54,5.72,5.72,0,0,0-.39-.56l0-.13.28-.29.1,0,.25.37.33.5.32.5.26.37.63.84.27.36c.12.16.25.31.38.47l.4.46a3.64,3.64,0,0,0,.31.33l-.06.07Z"/><path class="cls-6" d="M181.7,370.54l-.3.28h-.13a6.31,6.31,0,0,0-.56-.39,1,1,0,0,0-.53-.18,2,2,0,0,0-.51.11,1.94,1.94,0,0,0-.7.57l-.36.4-.42.49-.58.72-.82,1L174.14,377a6.15,6.15,0,0,1-1.53,1.41,4.31,4.31,0,0,1-1.81.69,4.57,4.57,0,0,1-2-.17,6.3,6.3,0,0,1-2.12-1.16,7.6,7.6,0,0,1-1.85-2,4.59,4.59,0,0,1-.69-2,4.2,4.2,0,0,1,.25-1.91,7.13,7.13,0,0,1,1-1.8l2.66-3.38c.32-.42.6-.76.82-1.05l.57-.72.39-.52c.1-.14.21-.29.3-.44a2,2,0,0,0,.37-.81,1.86,1.86,0,0,0,0-.54.88.88,0,0,0-.29-.47,5.41,5.41,0,0,0-.5-.44l0-.14.2-.36h0l.4.32.59.45.58.46.4.32.34.26.41.32.58.46.58.45c.19.15.32.26.41.32l0,.05-.31.27-.12,0c-.19-.15-.38-.28-.56-.4a1,1,0,0,0-.53-.17,1.8,1.8,0,0,0-.52.11,2.06,2.06,0,0,0-.7.56c-.14.16-.27.3-.38.44l-.41.48-.55.68-.81,1L167,370.61a4.71,4.71,0,0,0-1.29,3.41,4.86,4.86,0,0,0,4.76,3.73,4.65,4.65,0,0,0,3-2.05l2.28-2.92c.34-.42.61-.77.82-1l.53-.69c.14-.19.27-.36.37-.51s.22-.31.33-.48a2,2,0,0,0,.38-.82,2.19,2.19,0,0,0,0-.53.85.85,0,0,0-.28-.46c-.15-.15-.33-.3-.51-.45l0-.14.2-.36.09,0c.08.06.2.17.35.31a5.41,5.41,0,0,0,.5.44l.52.41.37.29.39.31.39.3.55.44.56.43.39.31,0,0Z"/><path class="cls-7" d="M189.39,379.25a2.15,2.15,0,0,0-.32,1,2.27,2.27,0,0,0,.24,1,5.46,5.46,0,0,0,.74,1.07c.33.38.72.81,1.19,1.29s.77.87,1.13,1.33a5.7,5.7,0,0,1,.84,1.47,3.82,3.82,0,0,1,.26,1.61,4,4,0,0,1-.56,1.78,3.69,3.69,0,0,1-3,2,5.24,5.24,0,0,1-1.85-.22,9.44,9.44,0,0,1-1.9-.81,9.72,9.72,0,0,1-2.05-1.51,10.33,10.33,0,0,1-1.42-1.7l.07-.3,1.5-1.9.49.27,0,.17a2.5,2.5,0,0,0,0,2.29,4.92,4.92,0,0,0,2,1.88,3.81,3.81,0,0,0,2.69.59,2.65,2.65,0,0,0,1.79-1.37,2.4,2.4,0,0,0,.35-1.31,3,3,0,0,0-.33-1.22,5.83,5.83,0,0,0-.8-1.15l-1-1.13a16.86,16.86,0,0,1-1.14-1.37,5.78,5.78,0,0,1-.77-1.38,3.19,3.19,0,0,1,.24-2.92,4,4,0,0,1,1.19-1.38,3.23,3.23,0,0,1,1.48-.53,4.26,4.26,0,0,1,1.64.16,8.49,8.49,0,0,1,1.73.74,12.18,12.18,0,0,1,1.89,1.32,8.3,8.3,0,0,1,1.26,1.32l0,.26-1.26,1.59-.54-.31,0-.15a1.46,1.46,0,0,0,.13-1,2.47,2.47,0,0,0-.42-.88,3.84,3.84,0,0,0-.73-.72,7.25,7.25,0,0,0-.77-.51,3.65,3.65,0,0,0-2.31-.56,2.16,2.16,0,0,0-1.62,1.19Z"/><path class="cls-8" d="M222.59,405.39l-.47-.14-.69-.19-.69-.2-.48-.14-1.23-.35-.47-.13-.68-.19-.68-.2-.48-.13,0,0,.17-.37.14-.05c.22.06.49.13.78.19a1.08,1.08,0,0,0,.66,0,2.75,2.75,0,0,0,.47-.28,1.54,1.54,0,0,0,.48-.77c0-.1.09-.22.13-.35s.1-.3.17-.5.14-.44.22-.73.18-.65.31-1.08l1.24-4.38c.27-.93.5-1.77.69-2.5s.34-1.28.43-1.66l-.24-.07-1.77-.5c-.46-.13-.83-.23-1.12-.29s-.5-.09-.65-.1a.73.73,0,0,0-.32,0,1.44,1.44,0,0,0-.9,1l-.11.07-.5-.14.85-2.42.14-.17.15,0a3.23,3.23,0,0,0,.72.36,12.16,12.16,0,0,0,1.25.42l1.33.38.92.26,2.71.78.92.26,1.33.38a13,13,0,0,0,1.29.3,3.51,3.51,0,0,0,.79.07l.12.1,0,.22-.53,2.51-.52-.15-.06-.11a1.46,1.46,0,0,0-.26-1.3.87.87,0,0,0-.26-.19,4.83,4.83,0,0,0-.61-.25c-.27-.1-.64-.22-1.1-.35l-1.75-.5-.23-.07c-.14.42-.3,1-.5,1.63s-.44,1.5-.72,2.48l-1.13,4-.36,1.26c-.09.33-.16.6-.22.81s-.1.41-.13.56-.08.32-.11.49a1.51,1.51,0,0,0,0,.91,3.87,3.87,0,0,0,.25.5,1.1,1.1,0,0,0,.56.35l.76.26.09.11-.05.41Z"/><path class="cls-9" d="M243.85,408.39a5.53,5.53,0,0,0,2.43-.22,5,5,0,0,0,1.91-1.17,6,6,0,0,0,1.33-1.89,8.35,8.35,0,0,0,.58-5,6,6,0,0,0-.89-2.15,5,5,0,0,0-1.63-1.55,5.77,5.77,0,0,0-2.34-.76,5.3,5.3,0,0,0-2.38.2A5,5,0,0,0,241,397a6,6,0,0,0-1.27,1.88,8.79,8.79,0,0,0-.64,2.46,8.11,8.11,0,0,0,.09,2.72,5.73,5.73,0,0,0,.89,2.14,5.14,5.14,0,0,0,1.6,1.48,5.55,5.55,0,0,0,2.19.71Zm1.66-13.88a7.67,7.67,0,0,1,3,1,6.75,6.75,0,0,1,2.09,1.91,7.39,7.39,0,0,1,1.13,2.56,8.35,8.35,0,0,1,.15,2.91,8.57,8.57,0,0,1-.81,2.78,7.19,7.19,0,0,1-1.7,2.25,6.88,6.88,0,0,1-2.53,1.41,7.7,7.7,0,0,1-3.29.25,7.46,7.46,0,0,1-3-1,6.43,6.43,0,0,1-3.1-4.4,9.32,9.32,0,0,1,.73-5.8,7,7,0,0,1,1.71-2.26,6.73,6.73,0,0,1,2.49-1.37,7.74,7.74,0,0,1,3.15-.24Z"/><path class="cls-10" d="M286.83,396.37a1.4,1.4,0,0,0-.53-.77,2.79,2.79,0,0,0-1-.41,5,5,0,0,0-1.19-.12,10.69,10.69,0,0,0-1.27.1,5.55,5.55,0,0,0-3.33,1.47,5.23,5.23,0,0,0-1.25,2.47,8.8,8.8,0,0,0-.1,3.13A7.51,7.51,0,0,0,279,405a5.57,5.57,0,0,0,1.53,1.81,5.19,5.19,0,0,0,2.06.95,6.67,6.67,0,0,0,2.45.08,9.86,9.86,0,0,0,2.06-.54,6.27,6.27,0,0,0,2.12-1.3l.26.21-.35,1.07a9.8,9.8,0,0,1-2.09,1.18,9.37,9.37,0,0,1-2.24.6,8.39,8.39,0,0,1-3.1-.12,6.65,6.65,0,0,1-2.53-1.2,7,7,0,0,1-1.82-2.15,8.26,8.26,0,0,1-.95-3,8.91,8.91,0,0,1,.07-3,6.7,6.7,0,0,1,1.09-2.6,6.8,6.8,0,0,1,2.11-1.94,8.13,8.13,0,0,1,3.15-1.05l.94-.13a7.2,7.2,0,0,1,1.16-.06c.41,0,.83,0,1.26.08a8.82,8.82,0,0,1,1.25.21l.09.21v2.06l-.64.09-.08-.08Z"/><path class="cls-11" d="M302.94,389.63l.85-.25,1.15-.34,1-.31.57-.17.17.16.6,2.37-.53.15-.12-.06a4.5,4.5,0,0,0-.35-.75.63.63,0,0,0-.55-.28,3.28,3.28,0,0,0-1.1.18l-2,.6-2.07.61.21.84c.05.23.09.42.13.58l.15.58c.06.23.14.5.23.82s.33,1.09.69,2.31l1.29-.39,1.17-.34a5.46,5.46,0,0,0,.87-.34,1,1,0,0,0,.43-.38,3.25,3.25,0,0,0,.19-.44.84.84,0,0,0,0-.54l.08-.13.35-.16.1,0,.18.88a8.29,8.29,0,0,0,.22.85c.1.34.2.66.31.94l.36.94-.07.07-.4.07-.11,0a1.55,1.55,0,0,0-.32-.61,2,2,0,0,0-.44-.4,1,1,0,0,0-.56-.05,5,5,0,0,0-.9.2l-1.16.34-1.31.39.61,2.08c.16.51.28.93.38,1.25s.18.61.26.85.16.48.24.68.16.44.27.7a.4.4,0,0,0,.56.28l1.82-.54c.86-.26,1.54-.48,2-.66a3.63,3.63,0,0,0,1.06-.56,1.07,1.07,0,0,0,.4-.69,7.9,7.9,0,0,0,0-1l.06-.11.56-.16.42,2.82-.11.27-.5.15-.87.25-1,.29-.76.23-4.34,1.29c-.11,0-.27.07-.5.14l-.71.21-.71.21-.49.15H301l-.05-.41.08-.11a6.48,6.48,0,0,0,.63-.23,1,1,0,0,0,.45-.33,2.16,2.16,0,0,0,.21-.48,1.89,1.89,0,0,0,0-.9q0-.15-.09-.36c0-.14-.08-.31-.13-.51s-.12-.45-.21-.74-.19-.64-.32-1.07l-1.29-4.37c-.15-.5-.28-.92-.38-1.27s-.19-.63-.26-.88-.14-.45-.19-.62l-.19-.51a2,2,0,0,0-.45-.76,1.76,1.76,0,0,0-.45-.3,1,1,0,0,0-.55,0,5.59,5.59,0,0,0-.65.16l-.14-.05-.18-.37,0,0,.49-.14.75-.22.77-.23.61-.18,3.53-1.05Z"/><path class="cls-12" d="M318.44,386.11a2,2,0,0,0-.54-.71,2.08,2.08,0,0,0-.48-.23,1,1,0,0,0-.55,0,6.19,6.19,0,0,0-.62.25l-.14,0-.23-.34,0,0,.47-.22.67-.3.68-.31.46-.22.39-.17.47-.22.67-.31.68-.3.47-.22h.05l.1.4,0,.12c-.22.1-.42.2-.61.31a1,1,0,0,0-.4.4,2,2,0,0,0-.14.52,1.9,1.9,0,0,0,.16.87c.08.2.15.38.22.54s.15.36.25.58l.36.8.55,1.2,1.72,3.76c.22.47.4.86.54,1.18s.27.58.38.81.22.44.33.64l.36.67a.4.4,0,0,0,.6.19L327,395c.81-.37,1.42-.67,1.82-.89a2.5,2.5,0,0,0,.8-.63.78.78,0,0,0,.11-.65c-.06-.25-.13-.57-.2-1l0-.11.53-.25.81,2.74-.07.28-.38.17-.63.29-.73.34-.65.29-4.12,1.89-.47.21-.67.31-.67.31-.47.21H322l-.11-.39L322,398c.22-.1.42-.21.6-.31a1,1,0,0,0,.39-.39,1.44,1.44,0,0,0,.12-.55,2.29,2.29,0,0,0-.14-.85c0-.1-.07-.22-.12-.35s-.12-.29-.21-.48-.2-.42-.32-.7l-.47-1-1.89-4.14c-.22-.47-.4-.87-.55-1.2s-.28-.6-.39-.83l-.29-.58-.26-.48Z"/><path class="cls-13" d="M338.3,373.14l.75-.48,1-.65.92-.58a5.71,5.71,0,0,1,.5-.32l.2.1,1.24,2.11-.47.3-.13,0a5.53,5.53,0,0,0-.54-.62.63.63,0,0,0-.61-.12,3.66,3.66,0,0,0-1,.48l-1.76,1.13-1.81,1.16.43.75c.11.21.21.38.29.52s.18.32.31.52.27.44.45.72.61,1,1.29,2l1.13-.73,1-.66a4.55,4.55,0,0,0,.74-.57.9.9,0,0,0,.31-.48,2.67,2.67,0,0,0,.07-.47.88.88,0,0,0-.17-.51l0-.16.29-.24h.1l.42.79c.12.23.27.48.44.76s.38.57.57.82l.6.79-.05.09-.36.18h-.12a1.7,1.7,0,0,0-.47-.49,2.27,2.27,0,0,0-.54-.27,1.08,1.08,0,0,0-.55.11,5.59,5.59,0,0,0-.81.44l-1,.65-1.15.74,1.17,1.83.7,1.1c.18.28.34.53.49.74l.42.59c.12.17.28.37.46.59a.38.38,0,0,0,.6.12l1.61-1c.75-.48,1.34-.88,1.75-1.19a3.68,3.68,0,0,0,.87-.83,1.08,1.08,0,0,0,.18-.77,5.36,5.36,0,0,0-.25-1l0-.12.49-.32,1.19,2.6,0,.29-.43.27-.77.49-.84.55-.68.43L343,387.71l-.44.28-.62.4-.62.4-.44.27h-.05l-.16-.38.05-.13a6,6,0,0,0,.55-.4,1,1,0,0,0,.33-.43,2.13,2.13,0,0,0,.07-.53,1.83,1.83,0,0,0-.29-.85c-.06-.09-.12-.2-.19-.32l-.26-.46-.41-.65-.6-.94-2.46-3.84-.71-1.11-.5-.77c-.13-.22-.25-.4-.36-.55s-.2-.29-.31-.43a2,2,0,0,0-.65-.62,2.53,2.53,0,0,0-.52-.16,1.07,1.07,0,0,0-.53.12,5.21,5.21,0,0,0-.59.34l-.14,0-.28-.3,0-.05.44-.27.65-.42.68-.44.53-.34,3.1-2Z"/><path class="cls-14" d="M356.91,368.4l1,1.12,1.1,1.26,1,1.09c.29.33.49.54.6.64.28.29.51.42.67.4a1,1,0,0,0,.5-.25l1-.9a5.26,5.26,0,0,0,.8-.87,4.15,4.15,0,0,0,.6-1.14,2.82,2.82,0,0,0,.09-1.33,2.87,2.87,0,0,0-.72-1.42,3.22,3.22,0,0,0-1.15-.88,2.76,2.76,0,0,0-1.28-.25,3.65,3.65,0,0,0-1.31.32,4.81,4.81,0,0,0-1.27.82l-1.61,1.39Zm.25-1.31a11.25,11.25,0,0,0,1-1,2.44,2.44,0,0,0,.57-1.12,2.35,2.35,0,0,0,0-1.21,3,3,0,0,0-.68-1.27,2.36,2.36,0,0,0-1.7-.93,2.69,2.69,0,0,0-1.85.77L353,363.68c.26.35.49.64.68.87s.35.44.49.62.26.33.38.47l.33.39.92,1.05a3.43,3.43,0,0,0,.5.51c.11.09.24.06.39-.06l.5-.44Zm3.91,7.65-.39.34-.56.49-.56.48-.39.34h-.05l-.21-.35,0-.14a4.55,4.55,0,0,0,.45-.44.9.9,0,0,0,.29-1,2.3,2.3,0,0,0-.4-.81l-.64-.79c-.28-.34-.72-.85-1.29-1.51l-3.68-4.24-.67-.78c-.25-.28-.51-.56-.77-.82a2,2,0,0,0-.74-.52,1.34,1.34,0,0,0-.53-.08,1.88,1.88,0,0,0-.42.14,3.65,3.65,0,0,0-.62.47h-.14l-.32-.26,0-.09c.08-.07.19-.16.33-.26l.43-.32.45-.35c.16-.12.3-.23.42-.34l.61-.53.43-.36.48-.42.45-.39.32-.28a5.19,5.19,0,0,1,3.24-1.57,3.12,3.12,0,0,1,2.41,1.16,4,4,0,0,1,.65,1,3.11,3.11,0,0,1,.24,1,3.18,3.18,0,0,1-.05.93,4.36,4.36,0,0,1-.26.87,4.32,4.32,0,0,1,2.72-.71,3.68,3.68,0,0,1,2.39,1.4,4.21,4.21,0,0,1,1,1.72,3.53,3.53,0,0,1,0,1.74,5.35,5.35,0,0,1-.82,1.71,9.22,9.22,0,0,1-1.52,1.64l-2.25,1.95Z"/><path class="cls-15" d="M373.52,351.82a3.56,3.56,0,0,0,1.09-2.6,3.29,3.29,0,0,0-1.24-2.13,2.53,2.53,0,0,0-2.2-.66,4,4,0,0,0-2.22,1.45l-1.27,1.48c.31.31.58.56.8.76l.57.54.45.41.39.33,1.67,1.43.36.29a.42.42,0,0,0,.27.07.48.48,0,0,0,.24-.13l.32-.33.77-.91Zm5.72,5.05-.34.39-.48.56c-.16.2-.33.38-.48.56l-.34.4-.27.32-.34.39-.48.56c-.17.2-.33.38-.48.57l-.34.39-.05,0-.26-.32v-.14c.11-.14.24-.3.38-.5a1.22,1.22,0,0,0,.24-.53,1.52,1.52,0,0,0-.11-.54,2.59,2.59,0,0,0-.52-.74l-.27-.25c-.11-.09-.23-.21-.39-.36s-.34-.31-.57-.5l-.85-.73-4.43-3.8-.79-.65c-.29-.25-.59-.48-.89-.7a2.55,2.55,0,0,0-.76-.38,1.66,1.66,0,0,0-.57,0,1.47,1.47,0,0,0-.39.21,2.73,2.73,0,0,0-.55.55l-.14,0-.35-.21,0-.09.29-.3.38-.38.4-.41.36-.4.53-.61.36-.43.42-.49.39-.45.29-.34a9.74,9.74,0,0,1,1.87-1.74,4.91,4.91,0,0,1,1.71-.77,3.07,3.07,0,0,1,1.54.06,3.94,3.94,0,0,1,1.35.76,3.78,3.78,0,0,1,1,1.35,4,4,0,0,1,.34,1.46,4.21,4.21,0,0,1-.17,1.45,8,8,0,0,1-.51,1.3c.82.07,1.65.13,2.48.18s1.66.06,2.48.06l1.24,0a5.1,5.1,0,0,0,1.06-.17,4.18,4.18,0,0,0,1-.44,6.48,6.48,0,0,0,1.05-.81l.15-.05.34.23.07.13-.73.85c-.27.32-.49.56-.64.75a3.58,3.58,0,0,1-.76.68,3.16,3.16,0,0,1-.86.35,5.13,5.13,0,0,1-1.11.13h-1.46l-.66,0-1.34-.12-1.66-.15-1.63-.17L372.94,354l1,.86,1.05.88.91.75.59.46a1.55,1.55,0,0,0,1.32.42,1.66,1.66,0,0,0,.4-.2,4.28,4.28,0,0,0,.56-.57h.13l.35.21v.05Z"/><path class="cls-16" d="M386.52,335l2.24-3.65-6-1.21,3.79,4.86Zm-4.87-6.78,10.61,2.2,1.16.25.8.15.56.1.4.05a3.46,3.46,0,0,0,1,0,1.77,1.77,0,0,0,.66-.22,1.31,1.31,0,0,0,.43-.38c.11-.15.22-.31.32-.47l.13,0,.38.15,0,.09a2.86,2.86,0,0,1-.27.38c-.13.17-.25.35-.37.54l-.34.54c-.1.18-.18.31-.24.4l-.38.63-.28.44-.39.64c-.14.22-.27.43-.39.64s-.22.35-.27.44l-.05,0-.3-.27,0-.12a2.82,2.82,0,0,0,.4-.94c0-.25-.12-.49-.49-.72a4.61,4.61,0,0,0-1.41-.46l-2.45-.49-1.12-.24-2.63,4.28.71.89c.63.78,1.14,1.44,1.55,2a4.63,4.63,0,0,0,1.05,1.05q.56.35.87.12A3.13,3.13,0,0,0,392,339l.13,0,.38.16v.05l-.26.42-.37.6-.37.6-.26.42-.22.37-.25.4-.34.55a5.33,5.33,0,0,0-.31.57,2.76,2.76,0,0,1-.21.4l-.09,0-.32-.25v-.15c.1-.16.19-.33.27-.49a1.35,1.35,0,0,0,.14-.54,2,2,0,0,0-.11-.69,3.83,3.83,0,0,0-.46-.9,2.29,2.29,0,0,0-.15-.24c-.07-.08-.16-.21-.28-.38s-.29-.4-.5-.67-.47-.64-.81-1.08l-1.22-1.63-1.76-2.33c-.34-.44-.68-.88-1-1.33l-.92-1.25c-.29-.39-.55-.74-.76-1l-.49-.65.12-1.48.12-.21Z"/><path class="cls-17" d="M405.6,313.79c0,.1-.1.25-.19.45l-.28.66c-.1.24-.2.46-.28.66l-.2.46-.5,1.17-.2.46c-.08.2-.18.42-.27.65s-.19.44-.28.65l-.2.45,0,0-.34-.22,0-.14c.1-.22.19-.47.29-.75a1.09,1.09,0,0,0,.07-.66,3.41,3.41,0,0,0-.22-.51,1.63,1.63,0,0,0-.71-.57l-.32-.17-.48-.23c-.19-.09-.42-.2-.7-.31l-1-.45-4.18-1.79-2.39-1-1.6-.63-.09.22-.73,1.7a11.36,11.36,0,0,0-.42,1.07,5.26,5.26,0,0,0-.19.63.7.7,0,0,0,0,.32c0,.38.32.72.84,1l0,.12-.2.47-2.3-1.15-.15-.16v-.15a3.72,3.72,0,0,0,.44-.66c.2-.36.39-.75.58-1.19s.37-.87.55-1.27.29-.7.37-.88l1.11-2.59c.08-.18.2-.48.38-.88s.35-.83.54-1.27a12.08,12.08,0,0,0,.46-1.24,3.41,3.41,0,0,0,.18-.78l.11-.1h.22l2.43.84-.22.5-.11,0a1.41,1.41,0,0,0-1.32.1.7.7,0,0,0-.23.23q-.12.18-.33.57c-.13.26-.29.6-.48,1l-.72,1.67-.1.23c.4.19.92.42,1.56.7s1.43.63,2.37,1l3.79,1.62,1.21.52.77.32.54.21.48.16a1.56,1.56,0,0,0,.9.12,3.84,3.84,0,0,0,.52-.19,1.1,1.1,0,0,0,.42-.5c.14-.27.26-.51.35-.73l.13-.07.39.1v.05Z"/><path class="cls-18" d="M397.69,290.57c.05-.19.13-.47.23-.86l.3-1.16c.11-.39.2-.74.28-1.05l.15-.57.23-.06,2.33.71-.14.54-.11.06a5,5,0,0,0-.82-.09.66.66,0,0,0-.54.33,3.47,3.47,0,0,0-.41,1c-.13.47-.3,1.14-.53,2l-.55,2.09.82.26.57.19.57.17.82.23,2.33.61.34-1.3c.12-.44.22-.83.31-1.18a4,4,0,0,0,.16-.92.87.87,0,0,0-.09-.56,3.13,3.13,0,0,0-.28-.4.84.84,0,0,0-.47-.26l-.07-.14.05-.38.07-.08.84.31a7.88,7.88,0,0,0,.84.25c.34.1.67.17,1,.23l1,.17,0,.1-.15.38-.08.07a1.63,1.63,0,0,0-.69,0,1.82,1.82,0,0,0-.57.17,1,1,0,0,0-.33.45,5.69,5.69,0,0,0-.31.87l-.3,1.17c-.12.44-.24.88-.35,1.32l2.09.56,1.27.33.86.22.7.15.74.12a.38.38,0,0,0,.53-.32l.49-1.84q.34-1.31.48-2.07a3.52,3.52,0,0,0,.08-1.2,1.09,1.09,0,0,0-.39-.69,5.59,5.59,0,0,0-.86-.56l-.06-.11.15-.57,2.63,1.12.17.23c0,.07-.07.24-.13.5l-.24.87c-.08.33-.17.65-.25,1l-.21.77L411,298.12c0,.1-.07.27-.13.5s-.13.47-.19.72-.13.48-.19.71-.11.4-.13.5l0,0-.37-.17-.06-.13a6,6,0,0,0,.14-.66,1,1,0,0,0-.05-.55,2.15,2.15,0,0,0-.3-.44,2,2,0,0,0-.79-.43c-.11,0-.22-.06-.36-.1L408,298l-.74-.2-1.08-.29-4.41-1.16-1.27-.34-.89-.23-.64-.16-.52-.1a1.92,1.92,0,0,0-.89,0,2.51,2.51,0,0,0-.49.23,1.08,1.08,0,0,0-.32.45c-.07.2-.14.41-.2.65l-.12.08-.41,0v-.05c0-.1.07-.26.13-.49s.13-.48.2-.75l.21-.78c.06-.26.12-.46.16-.62l.94-3.56Z"/><path class="cls-19" d="M262.22,364.1a114,114,0,0,1-78.67-31.29,116.62,116.62,0,0,1-8.34-8.75l18.39-15.77a93.47,93.47,0,0,0,6.59,6.92,90.32,90.32,0,1,0-27.48-77.76H207.3v24.22H147.68V249.56A114.54,114.54,0,1,1,262.22,364.1Z"/><polygon class="cls-20" points="203.36 261.7 191.81 261.7 191.81 237.45 203.36 237.45 203.36 261.7"/><path class="cls-19" d="M329.27,237.44v12.11a67.21,67.21,0,0,1-1.11,12.12c0,.28-.1.57-.15.87a67,67,0,0,1-131.71-.87,66.08,66.08,0,0,1,0-24.23,67.1,67.1,0,0,1,65.91-54.92v24.23a42.82,42.82,0,1,0,38.43,61.72,45.23,45.23,0,0,0,2.66-6.8H264.64V237.44Z"/><path class="cls-20" d="M328.08,261.61l-25,0c-.67,3.41-3.49,8.41-5.55,12.16l30.38-10.91.14-1.27Z"/><path class="cls-21" d="M290.74,52.64h0c-21.62-8.56-43.39-4.39-55.88-.46l28.27,20Zm-27.61,387.2h0l-28.27,20c12.49,3.93,34.26,8.1,55.88-.46l-27.61-19.52ZM138.34,91.42h0C117,100.66,104.55,119,98.5,130.61l34.12-5.85,5.72-33.34ZM392.6,384.74h0l-5.85,34.12c11.6-6.05,29.95-18.5,39.19-39.84l-33.34,5.72ZM98.5,379h0c9.24,21.34,27.58,33.79,39.19,39.84l-5.85-34.12L98.5,379ZM391.82,124.76h0l34.12,5.85c-6.06-11.6-18.5-30-39.84-39.19l5.72,33.34ZM58,226.62h0c-8.56,21.62-4.39,43.39-.46,55.88l20-28.27Zm387.2,27.61h0l20,28.27c3.93-12.49,8.1-34.26-.46-55.88L445.2,254.23Z"/><path class="cls-22" d="M366.09,79.22h0c-16.72-16.16-38.44-20.61-51.48-21.74l18.51,29.26ZM192.87,426.61h0l-33.75,7.7c10,8.39,28.58,20.55,51.83,20.89l-18.08-28.59ZM210.41,56.94h0c-23.25.4-41.75,12.61-51.77,21l33.77,7.6,18-28.63ZM333.57,425.07h0l-18.42,29.31c13-1.17,34.74-5.68,51.42-21.88l-33-7.43ZM63.89,307.6h0c.4,23.25,12.61,41.75,21,51.78l7.6-33.78ZM432,184.44h0l29.31,18.43c-1.17-13-5.68-34.75-21.88-51.43l-7.43,33ZM84.58,151.27h0C68.42,168,64,189.71,62.84,202.75l29.26-18.5-7.52-33ZM432,324.49h0l7.7,33.75c8.39-10.05,20.55-28.58,20.89-51.83L432,324.49Z"/><path class="cls-23" d="M118.07,200.52,117,203.63a1,1,0,0,0-.08.66,1.15,1.15,0,0,0,.61.35l10.86,3.81.44.15a1.63,1.63,0,0,0,2.05-.91c.13-.24.26-.34.38-.3s.2.18.12.39a4.7,4.7,0,0,1-.26.52,10.4,10.4,0,0,0-.39,1l-.29.81-.3.87c-.1.31-.19.58-.24.8-.09.44-.16.7-.18.77-.08.22-.2.31-.36.25s-.15-.19-.09-.44a1.8,1.8,0,0,0-.07-1.32,2.12,2.12,0,0,0-1.18-.76l-11-3.85-.29-.09a.85.85,0,0,0-.56-.06c-.1.05-.2.21-.29.5l-1,2.92a2.09,2.09,0,0,0-.1,1.43,2.73,2.73,0,0,0,1.14,1.1c.26.17.37.32.31.45s-.18.16-.37.09a4.9,4.9,0,0,1-.8-.42,7.18,7.18,0,0,0-1.26-.62,1.36,1.36,0,0,1-.62-.35.62.62,0,0,1,0-.55l4.19-11.93q.21-.62.39-.69a1.51,1.51,0,0,1,.83.14,6.33,6.33,0,0,0,1,.29,3.3,3.3,0,0,1,.57.12q.33.1.27.36c0,.13-.18.19-.44.14a1.73,1.73,0,0,0-1.18.11,2.32,2.32,0,0,0-.68,1.17Z"/><path id="_1" data-name=" 1" class="cls-24" d="M134.29,181l3.69-5.87a1.23,1.23,0,0,0,.27-.61c0-.11-.09-.22-.28-.34L134.61,172a3.47,3.47,0,0,0-1.61-.64,1.65,1.65,0,0,0-1.19.59c-.16.17-.3.22-.42.14s-.11-.2,0-.35a7.38,7.38,0,0,1,.46-.65q.47-.62.93-1.35a14.69,14.69,0,0,0,.87-1.52c.09-.19.15-.32.19-.39s.22-.19.35-.11.12.19.06.37l-.16.46a.89.89,0,0,0,.11.79,2.1,2.1,0,0,0,.75.76l9.58,6a3.08,3.08,0,0,0,1.65.62,1.81,1.81,0,0,0,1.21-.82c.15-.19.28-.26.39-.2s.17.22,0,.42a5,5,0,0,1-.34.49c-.12.16-.33.48-.65,1l-.46.74-.46.74c-.07.12-.17.28-.28.49-.24.42-.38.65-.41.7s-.21.2-.34.11-.11-.23,0-.47c.32-.77,0-1.48-1.05-2.11l-.38-.26-3.64-2.29c-.31-.19-.51-.28-.6-.25s-.24.21-.46.54l-3.68,5.86a1.54,1.54,0,0,0-.33.78c0,.14.18.3.49.5l3.65,2.29a2.84,2.84,0,0,0,1.66.59,2,2,0,0,0,1.28-.89c.18-.23.34-.3.49-.22s.14.22,0,.42-.17.23-.35.45-.4.55-.79,1.15l-.52.83-.39.66a5.64,5.64,0,0,0-.36.64c-.19.36-.3.58-.35.65s-.22.21-.34.13-.13-.2-.06-.4l.19-.56a1,1,0,0,0-.29-1,9.56,9.56,0,0,0-1.85-1.38l-8.53-5.37a2.27,2.27,0,0,0-1.46-.46,2.21,2.21,0,0,0-1.24.84c-.15.17-.28.22-.4.15s-.14-.21,0-.38.23-.31.43-.56a19.1,19.1,0,0,0,1.22-1.75,10.41,10.41,0,0,0,.75-1.37c.09-.19.16-.34.22-.44s.25-.24.38-.16.11.2,0,.4a1.83,1.83,0,0,0-.08,1.2,2.26,2.26,0,0,0,.91.89l3.56,2.24c.37.23.62.34.74.31s.32-.25.57-.66Z"/><path id="_2" data-name=" 2" class="cls-25" d="M150.24,151.14l3.45,3.3a1.43,1.43,0,0,0,.55.39c.1,0,.27-.12.5-.37l1.25-1.3a12,12,0,0,0,1.24-1.5,1.55,1.55,0,0,0,.32-.83,2.22,2.22,0,0,0-.48-.93.28.28,0,0,1,0-.41c.11-.11.23-.09.38,0l.18.19c.49.57,1,1.07,1.4,1.5a9.2,9.2,0,0,0,1.08.9,2.14,2.14,0,0,1,.27.21c.14.14.16.26.05.37a.28.28,0,0,1-.39,0l-.28-.17a1.56,1.56,0,0,0-1.15-.33,2.79,2.79,0,0,0-1.2.84L155.63,155a1.61,1.61,0,0,0-.45.64.51.51,0,0,0,.21.46l.28.26,3.12,3q.72.69,1.14.6a4,4,0,0,0,1.43-1.13c2.11-2.22,3-4.11,2.58-5.7a.41.41,0,0,1,0-.34c.09-.11.22-.1.37,0a3.11,3.11,0,0,1,.71,1.87,3.22,3.22,0,0,1-.89,2.75q-.22.24-.66.63c-1.14,1-2,1.82-2.72,2.52a19.5,19.5,0,0,0-1.89,2.2,4.25,4.25,0,0,1-.37.5c-.17.18-.31.21-.44.09s-.09-.22,0-.41l.21-.41c.28-.52.08-1.11-.6-1.75l-.54-.54L150,153.39a4.58,4.58,0,0,0-1.89-1.3,1.56,1.56,0,0,0-1.41.64c-.15.16-.29.2-.39.1s-.11-.34.14-.6a6.92,6.92,0,0,1,.58-.53,39.46,39.46,0,0,0,2.91-2.79q1-1,1.71-1.86l1.09-1.26c.31-.35.49-.56.55-.65a3.2,3.2,0,0,1,.29-.37.33.33,0,0,1,.51-.05,2.49,2.49,0,0,1,.17.21,8.42,8.42,0,0,0,.61.71l.46.5a4.91,4.91,0,0,1,.53.67.28.28,0,0,1-.06.32c-.1.12-.24.1-.42-.07l-.22-.21a1.87,1.87,0,0,0-.61-.39,1.24,1.24,0,0,0-1.13.16,12.66,12.66,0,0,0-1.85,1.68l-1.26,1.33a1.54,1.54,0,0,0-.52.8,1.16,1.16,0,0,0,.44.71Z"/><path id="_3" data-name=" 3" class="cls-26" d="M189.93,123.49c0,1.34,0,2.27,0,2.76l.18,2.46.16,2.74c0,.15.08,1,.21,2.39.05.6.09,1.09.1,1.49,0,.23,0,.39,0,.49.05.39,0,.63-.16.72s-.41,0-.74-.24l-.6-.4-.45-.31-8.5-6.12,2.59,5.17c.21.43.67,1.26,1.36,2.5s1.47,1.62,2.38,1.27c.46-.16.72-.18.8,0s0,.29-.17.4l-.38.19c-.79.37-1.4.68-1.81.91s-1,.57-1.39.87l-.3.2c-.2.12-.35.1-.43,0s0-.23.13-.36a1.74,1.74,0,0,0,.66-1.28,5,5,0,0,0-.64-2l-1.52-3q-1.66-3.3-2.14-4.15a6.6,6.6,0,0,0-2-2.42,2.49,2.49,0,0,0-2.21-.18c-.22.09-.37.07-.44-.07s0-.26.14-.35l.35-.17a5.85,5.85,0,0,0,.7-.36c.57-.32.92-.52,1.06-.62a2.76,2.76,0,0,1,.37-.24c.29-.17.65-.09,1.09.23l.25.17,9.4,6.79,1.11.76c.18.14.28.19.32.17s.05-.11,0-.28l0-.34,0-.26-1-13a1.73,1.73,0,0,1,0-.53c0-.08.1-.15.23-.23l.47-.21.34-.18a9.26,9.26,0,0,0,1-.62l.28-.19a.2.2,0,0,1,.32.08.26.26,0,0,1-.07.35l-.38.36a1.17,1.17,0,0,0-.37,1,5.72,5.72,0,0,0,.75,1.82l1.45,2.44,3.32,5.46.78,1.27a2,2,0,0,0,.91,1,1.88,1.88,0,0,0,1.3-.13c.39-.15.62-.17.69,0s0,.26-.27.4l-.26.14-.85.35c-.28.12-.57.27-.88.44s-.53.31-1,.6c-.68.43-1.08.67-1.19.73s-.33.11-.4,0,0-.23.14-.37a1.45,1.45,0,0,0,.5-1,3.35,3.35,0,0,0-.51-1.41l-1-1.64-3.91-6.33Z"/><path id="_4" data-name=" 4" class="cls-27" d="M213.63,112.08l2.6,8.39a7.68,7.68,0,0,0,.84,2,1.81,1.81,0,0,0,.8.64,2.5,2.5,0,0,0,1.14,0c.38-.06.6,0,.64.1s0,.3-.27.37l-.43.09a7.63,7.63,0,0,0-1.21.32l-1.63.48-1.3.49a4.75,4.75,0,0,1-.52.2c-.21.06-.33,0-.38-.13s.05-.25.27-.36c.55-.28.86-.59.93-.94a4.84,4.84,0,0,0-.33-1.94l-3-9.6a4,4,0,0,0-.9-1.77,2.08,2.08,0,0,0-1.57-.23c-.24,0-.39,0-.44-.15s0-.27.25-.34l.2,0a18.22,18.22,0,0,0,2.2-.56q.83-.25,1.41-.48l.72-.3.28-.1c.2-.07.32,0,.37.11s0,.26-.2.39l-.51.4c-.48.38-.48,1.36,0,2.94Z"/><path id="_5" data-name=" 5" class="cls-28" d="M237.73,115.61l.08.4c.16.93.34,1.46.55,1.6a3.25,3.25,0,0,0,1.77,0,12.32,12.32,0,0,0,3.66-1.15,3.3,3.3,0,0,0,1.79-1.7c.08-.23.17-.35.28-.37s.19.05.22.2a3.27,3.27,0,0,1-.47,1.8,3.88,3.88,0,0,1-3,1.81c-.25,0-.54.08-.87.11l-1.26.12c-.74.06-1.52.17-2.33.31a15.55,15.55,0,0,0-2.35.55l-.64.18c-.19,0-.29,0-.32-.15s.07-.22.27-.31a1.76,1.76,0,0,0,.94-.9,3.43,3.43,0,0,0,0-1.62l-.08-.54-1.76-10.35c-.18-1-.69-1.55-1.55-1.59h-.54c-.19,0-.29-.06-.31-.18s.08-.28.35-.32a7,7,0,0,1,.73-.08,16.43,16.43,0,0,0,1.78-.23c.71-.12,1.35-.24,1.92-.37l.49-.11c.19,0,.29,0,.31.12s-.07.28-.29.37l-.39.16q-1,.44-.69,2.25l1.71,10Z"/><path id="_6" data-name=" 6" class="cls-29" d="M265,113.55V114a3,3,0,0,0,.25,1.67,3.42,3.42,0,0,0,1.76.27,12.65,12.65,0,0,0,3.79-.48,3.33,3.33,0,0,0,2.07-1.36c.11-.21.22-.31.33-.31s.19.08.18.23a3.26,3.26,0,0,1-.78,1.69,3.93,3.93,0,0,1-3.27,1.24c-.25,0-.54,0-.86,0l-1.27-.1c-.74-.07-1.52-.1-2.35-.11a16.71,16.71,0,0,0-2.41.12c-.27,0-.49.06-.65.07s-.29-.06-.29-.21.1-.21.32-.27a1.78,1.78,0,0,0,1.08-.71,3.41,3.41,0,0,0,.29-1.6v-.54l.1-10.5c0-1-.41-1.65-1.25-1.83l-.52-.11c-.19,0-.28-.12-.28-.22s.13-.26.4-.26.43,0,.74,0c.53.06,1.12.08,1.79.09s1.37,0,1.95,0l.51,0q.29,0,.27.18c0,.16-.11.27-.34.33l-.41.09c-.71.16-1.07.86-1.08,2.09L265,113.55Z"/><path id="_7" data-name=" 7" class="cls-30" d="M294.86,105.81l-1,4.61a1.23,1.23,0,0,0,0,.66c0,.09.24.16.56.24l1.75.39A10.1,10.1,0,0,0,298,112a1.55,1.55,0,0,0,.87-.15,2.44,2.44,0,0,0,.54-.89q.12-.27.36-.21c.15,0,.2.16.16.36a1.71,1.71,0,0,1-.07.25c-.23.72-.42,1.39-.55,2a9.61,9.61,0,0,0-.22,1.41,2.65,2.65,0,0,1-.05.33c0,.2-.14.27-.29.24a.28.28,0,0,1-.24-.32v-.34a1.55,1.55,0,0,0-.31-1.16,2.66,2.66,0,0,0-1.33-.59l-2.52-.56a1.57,1.57,0,0,0-.78,0c-.14,0-.23.18-.29.41l-.07.38-.94,4.21c-.14.64-.11,1.07.08,1.29a4,4,0,0,0,1.71.63q4.47,1,6.2-.75a.42.42,0,0,1,.31-.15c.14,0,.2.14.15.34a3.09,3.09,0,0,1-1.23,1.59,3.22,3.22,0,0,1-2.8.66c-.23,0-.52-.13-.89-.24-1.42-.46-2.61-.79-3.56-1a19.91,19.91,0,0,0-2.85-.49c-.31,0-.51,0-.62,0s-.35-.17-.31-.33.15-.19.35-.19l.46,0c.59,0,1-.51,1.18-1.43l.18-.74,2.15-9.67a4.64,4.64,0,0,0,.13-2.28,1.54,1.54,0,0,0-1.27-.88c-.22,0-.31-.15-.28-.29s.23-.28.58-.2a6.36,6.36,0,0,1,.75.23,37.93,37.93,0,0,0,3.89,1c.93.21,1.76.38,2.48.51l1.64.28.83.14a3.35,3.35,0,0,1,.47,0c.25.06.35.19.3.41a.9.9,0,0,1-.09.26c0,.1-.14.4-.29.89l-.2.66a3.58,3.58,0,0,1-.3.79.28.28,0,0,1-.3.13c-.15,0-.2-.16-.14-.4l.06-.29a1.8,1.8,0,0,0,0-.73,1.27,1.27,0,0,0-.72-.88,12.66,12.66,0,0,0-2.39-.71l-1.79-.4a1.58,1.58,0,0,0-.95,0,1.12,1.12,0,0,0-.38.74Z"/><path id="_8" data-name=" 8" class="cls-31" d="M332.59,121.9l-4.07,8.9a12.41,12.41,0,0,1-.72,1.44.3.3,0,0,1-.41.11.37.37,0,0,1-.2-.21l-.11-.38-4.29-14.36-.05-.17a.22.22,0,0,0-.12-.13c-.13-.07-.27.07-.42.39l-3.32,7.24-.21.45-.32.77a1.66,1.66,0,0,0-.08,1.14,2.4,2.4,0,0,0,1,.91c.22.14.29.28.23.44a.23.23,0,0,1-.33.11l-.31-.17a9.81,9.81,0,0,0-.9-.5l-1.06-.55-.52-.22c-.28-.12-.55-.23-.81-.32a3,3,0,0,1-.42-.15q-.27-.12-.21-.33t.42-.12a2.39,2.39,0,0,0,1.59-.27,3.66,3.66,0,0,0,1.08-1.53l3.32-7.26a6.61,6.61,0,0,0,.74-3.17,2.42,2.42,0,0,0-1.14-2c-.18-.11-.24-.24-.18-.37s.17-.16.33-.09l.16.1.43.21.71.35.18.06.4.17a.83.83,0,0,1,.39.55l4.73,15.58c.07.25.13.37.18.39s.14,0,.21-.15l2.41-5.27.66-1.43,1-2.51a2.24,2.24,0,0,0,.06-1.52,3.59,3.59,0,0,0-1.26-1.25c-.19-.13-.25-.26-.19-.4s.19-.15.4,0l.43.23c.47.27,1.12.59,1.94,1A10.3,10.3,0,0,0,335,118a5.09,5.09,0,0,1,.54.19c.19.08.25.2.2.36s-.14.14-.31.11a1.41,1.41,0,0,0-1.1.14,3.58,3.58,0,0,0-.84,1.3l-.53,1.14-.34.69Z"/><path id="_9" data-name=" 9" class="cls-32" d="M361,141,355,148.7a14.57,14.57,0,0,1-1,1.23.31.31,0,0,1-.44,0,.4.4,0,0,1-.14-.24l0-.4-.79-15,0-.18a.18.18,0,0,0-.08-.15c-.12-.09-.29,0-.5.28L347,140.55l-.31.38-.49.68a1.69,1.69,0,0,0-.35,1.08,2.35,2.35,0,0,0,.71,1.11c.18.19.22.34.12.47a.2.2,0,0,1-.33,0,1.38,1.38,0,0,1-.26-.23c-.06-.07-.32-.29-.76-.68l-.91-.79-.45-.33a6.12,6.12,0,0,0-.72-.49,3.88,3.88,0,0,1-.37-.23c-.16-.13-.2-.25-.13-.37s.21-.1.43,0a2.38,2.38,0,0,0,1.62.1,3.7,3.7,0,0,0,1.41-1.23l4.94-6.3a6.79,6.79,0,0,0,1.48-2.93,2.44,2.44,0,0,0-.65-2.2c-.15-.16-.18-.29-.1-.39s.2-.12.34,0a1.49,1.49,0,0,1,.13.13l.37.31.6.51.16.1.36.26a.84.84,0,0,1,.25.63l.93,16.23c0,.26,0,.4.08.42s.15,0,.24-.09l3.58-4.56,1-1.24,1.55-2.21a2.2,2.2,0,0,0,.42-1.47,3.38,3.38,0,0,0-.93-1.5c-.15-.17-.18-.31-.09-.43s.22-.09.4.05.2.17.36.32a20.37,20.37,0,0,0,1.66,1.41,9.37,9.37,0,0,0,.94.67,3,3,0,0,1,.5.31c.16.12.19.25.1.39s-.16.09-.32,0a1.36,1.36,0,0,0-1.1-.13,3.53,3.53,0,0,0-1.12,1.06l-.78,1-.5.59Z"/><path id="_10" data-name=" 10" class="cls-33" d="M378.67,156.88l-6.74,5.67a7.72,7.72,0,0,0-1.54,1.56,1.88,1.88,0,0,0-.27,1,2.55,2.55,0,0,0,.43,1.06c.21.33.27.54.17.63s-.28.07-.43-.11a2.57,2.57,0,0,1-.26-.37,9.54,9.54,0,0,0-.76-1L368.19,164l-1-1c-.16-.15-.29-.29-.39-.4s-.14-.3,0-.4.25-.05.44.11a1.5,1.5,0,0,0,1.21.48,4.89,4.89,0,0,0,1.66-1.06l7.69-6.48a3.92,3.92,0,0,0,1.29-1.52,2.07,2.07,0,0,0-.4-1.54c-.12-.21-.14-.37,0-.45s.25-.08.4.1a1.26,1.26,0,0,1,.13.17,18.59,18.59,0,0,0,1.39,1.82c.37.45.7.83,1,1.12l.57.56.2.22c.13.16.15.29,0,.38s-.24.07-.42,0l-.58-.32c-.54-.3-1.45.08-2.72,1.15Z"/><path id="_11" data-name=" 11" class="cls-34" d="M389.76,183.47l-2.07-3.69a2.48,2.48,0,0,0-.65-.87,2.8,2.8,0,0,0-1.09,0l-1.88.17a5,5,0,0,0-1.78.41,1,1,0,0,0-.56.63,2.65,2.65,0,0,0,.16,1.16c.08.22.06.37-.05.45s-.22,0-.33-.19-.11-.19-.19-.35l-.51-1c-.16-.33-.37-.71-.61-1.14a5.23,5.23,0,0,0-.27-.45l-.38-.54c-.1-.19-.09-.31,0-.38a.25.25,0,0,1,.32.05l.32.31a1.62,1.62,0,0,0,.81.28,5.13,5.13,0,0,0,1.23.06l.84-.08,14.6-1.3c.25,0,.41,0,.47.12s0,.26-.14.44l-8.81,10.7-.43.53a5.73,5.73,0,0,0-1.09,1.67A3,3,0,0,0,388,192c.08.24.06.39-.07.45s-.23,0-.33-.2-.1-.19-.19-.4q-.25-.56-1-1.92a18.93,18.93,0,0,0-1-1.75,2.13,2.13,0,0,1-.22-.3c-.1-.17-.08-.3.06-.38s.21,0,.34.14l.25.28a.71.71,0,0,0,1,.12,9.28,9.28,0,0,0,1.82-1.83l1.08-1.26a1.93,1.93,0,0,0,.46-.71,1.9,1.9,0,0,0-.3-.74Zm1.72-.8,3.13-3.86.17-.2c.17-.21.23-.36.18-.46s-.11-.07-.28-.05l-5.52.48a1.55,1.55,0,0,0-.45.08c-.18.1-.18.3,0,.62l.14.28,1.73,3.08q.29.51.54.36a1,1,0,0,0,.2-.18Z"/><path id="_12" data-name=" 12" class="cls-35" d="M398.44,207.89l-.38.14c-.9.28-1.4.53-1.51.76a3.32,3.32,0,0,0,.28,1.76,12.25,12.25,0,0,0,1.65,3.48,3.4,3.4,0,0,0,1.93,1.56c.23,0,.37.11.4.21s0,.2-.17.24a3.13,3.13,0,0,1-1.84-.22,4,4,0,0,1-2.2-2.74c-.07-.24-.15-.52-.23-.84l-.29-1.24c-.18-.72-.39-1.48-.64-2.27a18.26,18.26,0,0,0-.85-2.27c-.12-.25-.21-.45-.27-.61s0-.3.11-.34.24,0,.36.22a1.8,1.8,0,0,0,1,.83,3.32,3.32,0,0,0,1.61-.21l.52-.15L408,203c1-.32,1.45-.9,1.35-1.76l-.05-.54c0-.19,0-.3.13-.34s.28,0,.36.3.11.41.17.72c.11.52.26,1.1.46,1.73s.43,1.3.64,1.84c.11.28.16.44.18.47s0,.29-.08.32-.3,0-.42-.22l-.21-.36c-.38-.62-1.15-.74-2.32-.37l-9.73,3.06Z"/></g></svg>